<svg xmlns="http://www.w3.org/2000/svg" xmlns:xlink="http://www.w3.org/1999/xlink" version="1.1" x="0px" y="0px" viewBox="0 0 100 125" style="enable-background:new 0 0 100 100;" xml:space="preserve"><path d="M56.5761719,63.7070312c0.5522461,0,1-0.4472656,1-1v-4.1210938c0-0.5527344-0.4477539-1-1-1s-1,0.4472656-1,1v4.1210938  C55.5761719,63.2597656,56.0239258,63.7070312,56.5761719,63.7070312z"/><path d="M80.9614258,73.5H67.8012695c-0.5522461,0-1,0.4472656-1,1v8.4169922c0,0.5527344,0.4477539,1,1,1h13.1601562  c0.5522461,0,1-0.4472656,1-1V74.5C81.9614258,73.9472656,81.5136719,73.5,80.9614258,73.5z M79.9614258,81.9169922H68.8012695V75.5  h11.1601562V81.9169922z"/><path d="M32.1616211,73.5H19.0014648c-0.5522461,0-1,0.4472656-1,1v8.4169922c0,0.5527344,0.4477539,1,1,1h13.1601562  c0.5522461,0,1-0.4472656,1-1V74.5C33.1616211,73.9472656,32.7138672,73.5,32.1616211,73.5z M31.1616211,81.9169922H20.0014648V75.5  h11.1601562V81.9169922z"/><path d="M89.0014648,10H10.996582c-0.5522461,0-1,0.4472656-1,1v21.1601562c0,1.8516846,0.772644,3.5237427,2.0087891,4.7194214V89  c0,0.5527344,0.4477539,1,1,1h73.734375c0.5522461,0,1-0.4472656,1-1V37.1095581  c1.3825684-1.2057495,2.2617188-2.9750366,2.2617188-4.9494019V11C90.0014648,10.4472656,89.5537109,10,89.0014648,10z   M88.0014648,17.4511719h-9.1435547V12h9.1435547V17.4511719z M76.8579102,32.1601562  c0,2.5214844-2.0507812,4.5722656-4.5717773,4.5722656s-4.5717773-2.0507812-4.5717773-4.5722656V19.4511719h9.1435547V32.1601562z   M85.7397461,67.9023438H62.9570312V64.25h22.7827148V67.9023438z M14.0053711,64.25h23.2788086v3.6523438H14.0053711V64.25z   M23.1401367,19.4511719h9.1435547v12.7089844c0,2.5214844-2.0507812,4.5722656-4.5717773,4.5722656  s-4.5717773-2.0507812-4.5717773-4.5722656V19.4511719z M34.2836914,19.4511719h9.1435547v12.7089844  c0,2.5214844-2.0507812,4.5722656-4.5717773,4.5722656s-4.5717773-2.0507812-4.5717773-4.5722656V19.4511719z   M54.5708008,17.4511719h-9.1435547V12h9.1435547V17.4511719z M56.5708008,12h9.1435547v5.4511719h-9.1435547V12z   M60.9570312,38.7230225v42.6099854H39.2841797V38.7106934c2.170166-0.1411133,4.0526123-1.336731,5.1430664-3.0821533  c1.1619873,1.8599854,3.2219238,3.1038818,5.5717773,3.1038818s4.40979-1.2438965,5.5717773-3.1038818  C56.7018433,37.4389648,58.6849365,38.6591187,60.9570312,38.7230225z M54.5708008,32.1601562  c0,2.5214844-2.0507812,4.5722656-4.5717773,4.5722656s-4.5717773-2.0507812-4.5717773-4.5722656V19.4511719h9.1435547V32.1601562z   M43.4272461,17.4511719h-9.1435547V12h9.1435547V17.4511719z M39.2841797,83.3330078h21.6728516V88H39.2841797V83.3330078z   M61.1425781,36.7324219c-2.5209961,0-4.5717773-2.0507812-4.5717773-4.5722656V19.4511719h9.1435547v12.7089844  C65.7143555,34.6816406,63.6635742,36.7324219,61.1425781,36.7324219z M67.7143555,17.4511719V12h9.1435547v5.4511719H67.7143555z   M32.2836914,12v5.4511719h-9.1435547V12H32.2836914z M21.1401367,12v5.4511719H11.996582V12H21.1401367z M11.996582,19.4511719  h9.1435547v12.7089844c0,2.5214844-2.0507812,4.5722656-4.5717773,4.5722656s-4.5717773-2.0507812-4.5717773-4.5722656V19.4511719z   M16.5683594,38.7324219c2.3498535,0,4.40979-1.2438965,5.5717773-3.1038818  c1.1619873,1.8599854,3.2219238,3.1038818,5.5717773,3.1038818s4.40979-1.2438965,5.5717773-3.1038818  c0.8937988,1.4306641,2.3192749,2.4912109,4.0004883,2.9060669V62.25H14.0053711V38.2115479  C14.793396,38.5466309,15.6595459,38.7324219,16.5683594,38.7324219z M14.0053711,69.9023438h23.2788086V88H14.0053711V69.9023438z   M62.9570312,88V69.9023438h22.7827148V88H62.9570312z M85.7397461,62.25H62.9570312V38.4719238  c1.5759277-0.4539185,2.9067993-1.4819946,3.7573242-2.8433838c1.1619873,1.8599854,3.2219238,3.1038818,5.5717773,3.1038818  s4.40979-1.2438965,5.5717773-3.1038818c1.1619873,1.8599854,3.2219238,3.1038818,5.5717773,3.1038818  c0.8137817,0,1.5901489-0.1555786,2.3100586-0.4272461V62.25z M83.4296875,36.7324219  c-2.5209961,0-4.5717773-2.0507812-4.5717773-4.5722656V19.4511719h9.1435547v12.7089844  C88.0014648,34.6816406,85.9506836,36.7324219,83.4296875,36.7324219z"/><text x="0" y="115" fill="#000000" font-size="5px" font-weight="bold" font-family="'Helvetica Neue', Helvetica, Arial-Unicode, Arial, Sans-serif">Created by Made x Made</text><text x="0" y="120" fill="#000000" font-size="5px" font-weight="bold" font-family="'Helvetica Neue', Helvetica, Arial-Unicode, Arial, Sans-serif">from the Noun Project</text></svg>